<?xml version="1.0" encoding="utf-8"?>
<!-- Generator: Adobe Illustrator 25.2.1, SVG Export Plug-In . SVG Version: 6.00 Build 0)  -->
<svg version="1.1" id="Ebene_1" xmlns="http://www.w3.org/2000/svg" xmlns:xlink="http://www.w3.org/1999/xlink" x="0px" y="0px"
	 viewBox="0 0 837.4 598.5" style="enable-background:new 0 0 837.4 598.5;" xml:space="preserve">
<style type="text/css">
	.st0{fill:#99D0C1;}
	
		.st1{clip-path:url(#SVGID_2_);fill:none;stroke:#CEE7DE;stroke-width:4.8373;stroke-linecap:round;stroke-linejoin:round;stroke-miterlimit:10;}
	.st2{clip-path:url(#SVGID_2_);fill:none;stroke:#CEE7DE;stroke-width:4.8373;stroke-miterlimit:10;}
	.st3{clip-path:url(#SVGID_2_);fill:none;stroke:#CEE7DE;stroke-width:4.8373;}
	.st4{clip-path:url(#SVGID_2_);fill:#99D0C1;stroke:#CEE7DE;stroke-width:4.8373;}
	.st5{fill:none;stroke:#CEE7DE;stroke-width:4.8373;stroke-miterlimit:10;}
	.st6{fill:none;stroke:#241D4F;stroke-width:6.4498;stroke-miterlimit:10;}
	.st7{fill:#FFD962;}
	.st8{fill:#241D4F;}
	.st9{fill:#E84133;}
	.st10{fill:#FFFFFF;}
	.st11{fill:none;stroke:#241D4F;stroke-width:6.4498;stroke-linecap:round;stroke-linejoin:round;stroke-miterlimit:10;}
	.st12{fill:none;stroke:#FFFFFF;stroke-width:6.4498;stroke-linecap:round;stroke-linejoin:round;stroke-miterlimit:10;}
	.st13{fill:#CEE7DE;}
	
		.st14{clip-path:url(#SVGID_4_);fill:none;stroke:#CEE7DE;stroke-width:3;stroke-linecap:round;stroke-linejoin:round;stroke-miterlimit:10;}
	.st15{clip-path:url(#SVGID_4_);fill:none;stroke:#CEE7DE;stroke-width:3;stroke-miterlimit:10;}
	.st16{clip-path:url(#SVGID_4_);fill:none;stroke:#CEE7DE;stroke-width:3;}
	.st17{clip-path:url(#SVGID_4_);fill:#99D0C1;stroke:#CEE7DE;stroke-width:3;}
	
		.st18{clip-path:url(#SVGID_6_);fill:none;stroke:#99D0C1;stroke-width:3;stroke-linecap:round;stroke-linejoin:round;stroke-miterlimit:10;}
	.st19{clip-path:url(#SVGID_6_);fill:none;stroke:#99D0C1;stroke-width:3;stroke-miterlimit:10;}
	.st20{clip-path:url(#SVGID_6_);fill:none;stroke:#99D0C1;stroke-width:3;}
	.st21{clip-path:url(#SVGID_6_);fill:#CEE7DE;stroke:#99D0C1;stroke-width:3;}
	.st22{fill:none;stroke:#99D0C1;stroke-width:3;stroke-miterlimit:10;}
	
		.st23{clip-path:url(#SVGID_8_);fill:none;stroke:#99D0C1;stroke-width:3;stroke-linecap:round;stroke-linejoin:round;stroke-miterlimit:10;}
	
		.st24{clip-path:url(#SVGID_10_);fill:none;stroke:#99D0C1;stroke-width:3;stroke-linecap:round;stroke-linejoin:round;stroke-miterlimit:10;}
	.st25{fill:none;stroke:#99D0C1;stroke-width:3;}
	.st26{fill:none;stroke:#99D0C1;stroke-width:3;stroke-linecap:round;stroke-linejoin:round;stroke-miterlimit:10;}
	.st27{fill:none;stroke:#CEE7DE;stroke-width:3;stroke-miterlimit:10;}
	.st28{fill:none;stroke:#FFFFFF;stroke-width:3;stroke-miterlimit:10;stroke-dasharray:7.72,51.4664,7.72,51.4664,7.72,51.4664;}
	.st29{fill:none;stroke:#241D4F;stroke-width:4;stroke-miterlimit:10;}
	.st30{fill:none;stroke:#2B2658;stroke-width:13;stroke-linecap:round;stroke-linejoin:round;stroke-miterlimit:10;}
	.st31{fill:none;stroke:#241D4F;stroke-width:6;stroke-linecap:round;stroke-linejoin:round;stroke-miterlimit:10;}
	.st32{fill:none;stroke:#E84133;stroke-width:4;stroke-linecap:round;stroke-linejoin:round;stroke-miterlimit:10;}
	.st33{fill:none;stroke:#241D4F;stroke-width:4;stroke-linecap:round;stroke-linejoin:round;stroke-miterlimit:10;}
	.st34{clip-path:url(#XMLID_10_);}
	.st35{fill:none;stroke:#241D4F;stroke-width:63;stroke-linecap:round;stroke-linejoin:round;stroke-miterlimit:10;}
	
		.st36{fill:none;stroke:#FFFFFF;stroke-width:9;stroke-linecap:round;stroke-linejoin:round;stroke-miterlimit:10;stroke-dasharray:30,80;}
	
		.st37{clip-path:url(#SVGID_12_);fill:none;stroke:#CEE7DE;stroke-width:3;stroke-linecap:round;stroke-linejoin:round;stroke-miterlimit:10;}
	.st38{clip-path:url(#SVGID_12_);fill:none;stroke:#CEE7DE;stroke-width:3;stroke-miterlimit:10;}
	.st39{clip-path:url(#SVGID_12_);fill:none;stroke:#CEE7DE;stroke-width:3;}
	.st40{clip-path:url(#SVGID_12_);fill:#99D0C1;stroke:#CEE7DE;stroke-width:3;}
	
		.st41{clip-path:url(#SVGID_14_);fill:none;stroke:#99D0C1;stroke-width:3;stroke-linecap:round;stroke-linejoin:round;stroke-miterlimit:10;}
	.st42{fill:none;stroke:#241D4F;stroke-width:14.6673;stroke-miterlimit:10;}
	.st43{fill:none;stroke:#241D4F;stroke-width:5.2202;stroke-linecap:round;stroke-linejoin:round;stroke-miterlimit:10;}
	.st44{fill:none;stroke:#E84133;stroke-width:3.4802;stroke-linecap:round;stroke-linejoin:round;stroke-miterlimit:10;}
	.st45{fill:none;stroke:#241D4F;stroke-width:3.4802;stroke-miterlimit:10;}
	.st46{fill:none;stroke:#2B2658;stroke-width:6.9603;stroke-linecap:round;stroke-linejoin:round;stroke-miterlimit:10;}
	.st47{fill:none;stroke:#FFFFFF;stroke-width:4;stroke-linecap:round;stroke-linejoin:round;stroke-miterlimit:10;}
	.st48{fill:none;stroke:#241D4F;stroke-width:3.4802;stroke-linecap:round;stroke-linejoin:round;stroke-miterlimit:10;}
	.st49{fill:none;stroke:#241D4F;stroke-width:15;stroke-miterlimit:10;}
	
		.st50{clip-path:url(#SVGID_16_);fill:none;stroke:#CEE7DE;stroke-width:5.6502;stroke-linecap:round;stroke-linejoin:round;stroke-miterlimit:10;}
	.st51{fill:none;stroke:#CEE7DE;stroke-width:5.6502;}
	.st52{fill:none;stroke:#CEE7DE;stroke-width:4.5442;stroke-miterlimit:10;}
	.st53{fill:none;stroke:#241D4F;stroke-width:6.0589;stroke-miterlimit:10;}
	.st54{fill:none;stroke:#241D4F;stroke-width:9.0884;stroke-linecap:round;stroke-linejoin:round;stroke-miterlimit:10;}
	.st55{fill:none;stroke:#E84133;stroke-width:6.0589;stroke-linecap:round;stroke-linejoin:round;stroke-miterlimit:10;}
	.st56{fill:none;stroke:#241D4F;stroke-width:6.0589;stroke-linecap:round;stroke-linejoin:round;stroke-miterlimit:10;}
	.st57{clip-path:url(#XMLID_11_);}
	.st58{fill:none;stroke:#CEE7DE;stroke-width:4.786;stroke-linecap:round;stroke-linejoin:round;stroke-miterlimit:10;}
	.st59{fill:none;stroke:#241D4F;stroke-width:6.3813;stroke-miterlimit:10;}
	.st60{fill:none;stroke:#2B2658;stroke-width:12.7627;stroke-linecap:round;stroke-linejoin:round;stroke-miterlimit:10;}
	.st61{fill:none;stroke:#FFFFFF;stroke-width:3.4802;stroke-linecap:round;stroke-linejoin:round;stroke-miterlimit:10;}
	.st62{fill:none;stroke:#FFFFFF;stroke-width:3.4802;stroke-miterlimit:10;}
	.st63{fill:none;stroke:#FFFFFF;stroke-width:6.4839;stroke-miterlimit:10;}
	
		.st64{clip-path:url(#SVGID_18_);fill:none;stroke:#CEE7DE;stroke-width:3;stroke-linecap:round;stroke-linejoin:round;stroke-miterlimit:10;}
	.st65{clip-path:url(#SVGID_18_);fill:none;stroke:#CEE7DE;stroke-width:3;stroke-miterlimit:10;}
	.st66{clip-path:url(#SVGID_18_);fill:none;stroke:#CEE7DE;stroke-width:3;}
	.st67{clip-path:url(#SVGID_18_);fill:#99D0C1;stroke:#CEE7DE;stroke-width:3;}
	
		.st68{clip-path:url(#SVGID_20_);fill:none;stroke:#99D0C1;stroke-width:3;stroke-linecap:round;stroke-linejoin:round;stroke-miterlimit:10;}
	.st69{fill:none;stroke:#241D4F;stroke-width:18;stroke-miterlimit:10;}
	.st70{clip-path:url(#XMLID_12_);}
	.st71{fill:none;stroke:#FFFFFF;stroke-width:4;stroke-miterlimit:10;}
	
		.st72{clip-path:url(#SVGID_22_);fill:none;stroke:#CEE7DE;stroke-width:3;stroke-linecap:round;stroke-linejoin:round;stroke-miterlimit:10;}
	.st73{clip-path:url(#SVGID_22_);fill:none;stroke:#CEE7DE;stroke-width:3;stroke-miterlimit:10;}
	.st74{clip-path:url(#SVGID_22_);fill:none;stroke:#CEE7DE;stroke-width:3;}
	.st75{clip-path:url(#SVGID_22_);fill:#99D0C1;stroke:#CEE7DE;stroke-width:3;}
	
		.st76{clip-path:url(#SVGID_24_);fill:none;stroke:#99D0C1;stroke-width:3;stroke-linecap:round;stroke-linejoin:round;stroke-miterlimit:10;}
	.st77{clip-path:url(#XMLID_13_);}
	.st78{fill:none;stroke:#2B2658;stroke-width:8;stroke-linecap:round;stroke-linejoin:round;stroke-miterlimit:10;}
	
		.st79{clip-path:url(#SVGID_26_);fill:none;stroke:#CEE7DE;stroke-width:4.8373;stroke-linecap:round;stroke-linejoin:round;stroke-miterlimit:10;}
	.st80{clip-path:url(#SVGID_26_);fill:none;stroke:#CEE7DE;stroke-width:4.8373;stroke-miterlimit:10;}
	.st81{clip-path:url(#SVGID_26_);fill:none;stroke:#CEE7DE;stroke-width:4.8373;}
	.st82{clip-path:url(#SVGID_26_);fill:#99D0C1;stroke:#CEE7DE;stroke-width:4.8373;}
	
		.st83{clip-path:url(#SVGID_28_);fill:none;stroke:#CEE7DE;stroke-width:5.6502;stroke-linecap:round;stroke-linejoin:round;stroke-miterlimit:10;}
	.st84{clip-path:url(#XMLID_14_);}
	.st85{clip-path:url(#XMLID_15_);}
	
		.st86{clip-path:url(#SVGID_30_);fill:none;stroke:#CEE7DE;stroke-width:3;stroke-linecap:round;stroke-linejoin:round;stroke-miterlimit:10;}
	.st87{clip-path:url(#SVGID_30_);fill:none;stroke:#CEE7DE;stroke-width:3;stroke-miterlimit:10;}
	.st88{clip-path:url(#SVGID_30_);fill:none;stroke:#CEE7DE;stroke-width:3;}
	.st89{clip-path:url(#SVGID_30_);fill:#99D0C1;stroke:#CEE7DE;stroke-width:3;}
	
		.st90{clip-path:url(#SVGID_32_);fill:none;stroke:#99D0C1;stroke-width:3;stroke-linecap:round;stroke-linejoin:round;stroke-miterlimit:10;}
	.st91{clip-path:url(#XMLID_16_);}
	.st92{fill:none;stroke:#E84133;stroke-width:6;stroke-linecap:round;stroke-linejoin:round;stroke-miterlimit:10;}
	.st93{clip-path:url(#XMLID_17_);}
	.st94{fill:none;stroke:#2B2658;stroke-width:7;stroke-linecap:round;stroke-linejoin:round;stroke-miterlimit:10;}
</style>
<path class="st9" d="M414.6,527.4c0,0-56.7,32.5-119,32.5s-119-32.5-119-32.5l92.4-173.2c13.2-24.7,46.5-24.2,59.1,0.8L414.6,527.4z
	"/>
<g>
	<g>
		<path class="st8" d="M287.2,295.3c-0.2,0.1-1.2,9.8-5,24.3c-3.8,14-10.3,32.8-21.5,39.5c-11.5,6.4-25,1.7-35.6,8.3
			c-10.6,4.5-18.3,20.2-18,19.8c-1.3,3.8,8.5-48.5,32.4-59.4c11.4-5.5,23.2-5.1,32.3-12.7C280.8,309.1,287.1,295,287.2,295.3z"/>
	</g>
	<g>
		<path class="st8" d="M333.2,490.9h-48.7c-12.3,0-22.3-10-22.3-22.3V365.1c0-16.5,13.4-29.9,29.9-29.9h13.5
			c17,0,30.7,13.7,30.7,30.7v121.9C336.3,489.5,334.9,490.9,333.2,490.9z"/>
		<g>
			<g>
				<path class="st8" d="M213.8,452c1,3.2,3.2,6.1,6.4,7.9c6.7,3.8,15.2,1.4,18.9-5.3l52.8-94.1c3.8-6.7,1.4-15.2-5.3-18.9
					c-6.7-3.8-15.2-1.4-18.9,5.3L214.9,441C213,444.5,212.7,448.4,213.8,452z"/>
			</g>
			<g>
				<path class="st8" d="M426.9,393.6c-1.2-3.5-3.7-6.6-7.4-8.3l-98-45.1c-7-3.2-15.2-0.2-18.4,6.8c-3.2,7-0.2,15.2,6.8,18.4
					l98,45.1c7,3.2,15.2,0.2,18.4-6.8C427.9,400.5,428,396.9,426.9,393.6z"/>
			</g>
		</g>
		<g>
			<path class="st8" d="M329.6,592.1c-7.7,0.5-14.3-5.5-14.8-13.5l-8.1-130.8c-0.5-7.9,5.3-14.7,13-15.2c7.7-0.5,14.3,5.5,14.8,13.5
				l8.1,130.8C343.1,584.8,337.3,591.6,329.6,592.1z"/>
		</g>
	</g>
	<circle class="st8" cx="299.2" cy="290.3" r="32.8"/>
</g>
<g>
	<path class="st8" d="M247.5,593c-2,0-4-0.4-5.9-1.4c-6.7-3.3-9.4-11.3-6.1-18l20.1-41l5.5-59.5c0.7-7.4,7.2-12.8,14.6-12.1
		c7.4,0.7,12.8,7.2,12.1,14.6l-5.7,62c-0.1,1.6-0.6,3.2-1.3,4.7l-21.2,43.2C257.3,590.2,252.5,593,247.5,593z"/>
</g>
<path class="st10" d="M297.5,363.4c-14,0-25.3,11.3-25.3,25.3c0,14,11.3,25.3,25.3,25.3c14,0,25.3-11.3,25.3-25.3
	C322.8,374.7,311.5,363.4,297.5,363.4z M296.1,399.1c-2,0-3.6-1.6-3.6-3.6c0-2,1.6-3.6,3.6-3.6s3.6,1.6,3.6,3.6
	C299.7,397.5,298.1,399.1,296.1,399.1z M301.8,389.8h-13.5c-4,0-7.2-3.2-7.2-7.2s3.2-7.2,7.2-7.2h6.3c4,0,7.2,3.2,7.2,7.2V389.8z
	 M307.8,401.9c-3.3,0-6-2.7-6-6v-6h6c3.3,0,6,2.7,6,6C313.8,399.2,311.1,401.9,307.8,401.9z"/>
<g>
	<path class="st8" d="M534.6,496.5L534.6,496.5c-20.6,0-37.4-16.7-37.4-37.4v-82.2c0-20.6,16.7-37.4,37.4-37.4h0
		c20.6,0,37.4,16.7,37.4,37.4v82.2C571.9,479.8,555.2,496.5,534.6,496.5z"/>
	<circle class="st8" cx="534.5" cy="294.4" r="33.1"/>
	<g>
		<path class="st8" d="M511.2,598.4c-7.7,0-14-6.3-14-14V456.3c0-7.7,6.3-14,14-14s14,6.3,14,14v128.1
			C525.2,592.2,518.9,598.4,511.2,598.4z"/>
	</g>
	<g>
		<path class="st8" d="M462.2,467.4c-3.4,0.7-7,0.1-10.1-1.9c-6.6-4.1-8.6-12.7-4.5-19.3l57.6-92.2c4.1-6.6,12.7-8.6,19.3-4.5
			c6.6,4.1,8.6,12.7,4.5,19.3l-57.6,92.2C469.3,464.5,465.9,466.7,462.2,467.4z"/>
	</g>
	<g>
		<path class="st8" d="M627.1,455.2c-3.7,0-7.5-1.5-10.2-4.4l-74.3-79.4c-5.3-5.7-5-14.5,0.7-19.8c5.7-5.3,14.5-5,19.8,0.7
			l74.3,79.4c5.3,5.7,5,14.5-0.7,19.8C634,454,630.5,455.2,627.1,455.2z"/>
	</g>
</g>
<path class="st8" d="M587.2,580.7l-10-47l-5.2-71.3c-0.5-7.4-7-12.9-14.4-12.4c-7.4,0.5-13,7-12.4,14.4l5.3,72.2
	c0,0.6,0.1,1.2,0.3,1.8l10.2,47.9c1.3,6.3,6.9,10.6,13.1,10.6c0.9,0,1.9-0.1,2.8-0.3C584.1,595.1,588.7,587.9,587.2,580.7z"/>
</svg>
