<?xml version="1.0" encoding="utf-8"?>
<!-- Generator: Adobe Illustrator 25.2.1, SVG Export Plug-In . SVG Version: 6.00 Build 0)  -->
<svg version="1.1" id="Ebene_1" xmlns="http://www.w3.org/2000/svg" xmlns:xlink="http://www.w3.org/1999/xlink" x="0px" y="0px"
	 viewBox="0 0 837.4 598.5" style="enable-background:new 0 0 837.4 598.5;" xml:space="preserve">
<style type="text/css">
	.st0{fill:#99D0C1;}
	
		.st1{clip-path:url(#SVGID_2_);fill:none;stroke:#CEE7DE;stroke-width:4.8373;stroke-linecap:round;stroke-linejoin:round;stroke-miterlimit:10;}
	.st2{clip-path:url(#SVGID_2_);fill:none;stroke:#CEE7DE;stroke-width:4.8373;stroke-miterlimit:10;}
	.st3{clip-path:url(#SVGID_2_);fill:none;stroke:#CEE7DE;stroke-width:4.8373;}
	.st4{clip-path:url(#SVGID_2_);fill:#99D0C1;stroke:#CEE7DE;stroke-width:4.8373;}
	.st5{fill:none;stroke:#CEE7DE;stroke-width:4.8373;stroke-miterlimit:10;}
	.st6{fill:none;stroke:#241D4F;stroke-width:6.4498;stroke-miterlimit:10;}
	.st7{fill:#FFD962;}
	.st8{fill:#241D4F;}
	.st9{fill:#E84133;}
	.st10{fill:#FFFFFF;}
	.st11{fill:none;stroke:#241D4F;stroke-width:6.4498;stroke-linecap:round;stroke-linejoin:round;stroke-miterlimit:10;}
	.st12{fill:none;stroke:#FFFFFF;stroke-width:6.4498;stroke-linecap:round;stroke-linejoin:round;stroke-miterlimit:10;}
	.st13{fill:#CEE7DE;}
	
		.st14{clip-path:url(#SVGID_4_);fill:none;stroke:#CEE7DE;stroke-width:3;stroke-linecap:round;stroke-linejoin:round;stroke-miterlimit:10;}
	.st15{clip-path:url(#SVGID_4_);fill:none;stroke:#CEE7DE;stroke-width:3;stroke-miterlimit:10;}
	.st16{clip-path:url(#SVGID_4_);fill:none;stroke:#CEE7DE;stroke-width:3;}
	.st17{clip-path:url(#SVGID_4_);fill:#99D0C1;stroke:#CEE7DE;stroke-width:3;}
	
		.st18{clip-path:url(#SVGID_6_);fill:none;stroke:#99D0C1;stroke-width:3;stroke-linecap:round;stroke-linejoin:round;stroke-miterlimit:10;}
	.st19{clip-path:url(#SVGID_6_);fill:none;stroke:#99D0C1;stroke-width:3;stroke-miterlimit:10;}
	.st20{clip-path:url(#SVGID_6_);fill:none;stroke:#99D0C1;stroke-width:3;}
	.st21{clip-path:url(#SVGID_6_);fill:#CEE7DE;stroke:#99D0C1;stroke-width:3;}
	.st22{fill:none;stroke:#99D0C1;stroke-width:3;stroke-miterlimit:10;}
	
		.st23{clip-path:url(#SVGID_8_);fill:none;stroke:#99D0C1;stroke-width:3;stroke-linecap:round;stroke-linejoin:round;stroke-miterlimit:10;}
	
		.st24{clip-path:url(#SVGID_10_);fill:none;stroke:#99D0C1;stroke-width:3;stroke-linecap:round;stroke-linejoin:round;stroke-miterlimit:10;}
	.st25{fill:none;stroke:#99D0C1;stroke-width:3;}
	.st26{fill:none;stroke:#99D0C1;stroke-width:3;stroke-linecap:round;stroke-linejoin:round;stroke-miterlimit:10;}
	.st27{fill:none;stroke:#CEE7DE;stroke-width:3;stroke-miterlimit:10;}
	.st28{fill:none;stroke:#FFFFFF;stroke-width:3;stroke-miterlimit:10;stroke-dasharray:7.72,51.4664,7.72,51.4664,7.72,51.4664;}
	.st29{fill:none;stroke:#241D4F;stroke-width:4;stroke-miterlimit:10;}
	.st30{fill:none;stroke:#2B2658;stroke-width:13;stroke-linecap:round;stroke-linejoin:round;stroke-miterlimit:10;}
	.st31{fill:none;stroke:#241D4F;stroke-width:6;stroke-linecap:round;stroke-linejoin:round;stroke-miterlimit:10;}
	.st32{fill:none;stroke:#E84133;stroke-width:4;stroke-linecap:round;stroke-linejoin:round;stroke-miterlimit:10;}
	.st33{fill:none;stroke:#241D4F;stroke-width:4;stroke-linecap:round;stroke-linejoin:round;stroke-miterlimit:10;}
	.st34{clip-path:url(#XMLID_10_);}
	.st35{fill:none;stroke:#241D4F;stroke-width:63;stroke-linecap:round;stroke-linejoin:round;stroke-miterlimit:10;}
	
		.st36{fill:none;stroke:#FFFFFF;stroke-width:9;stroke-linecap:round;stroke-linejoin:round;stroke-miterlimit:10;stroke-dasharray:30,80;}
	
		.st37{clip-path:url(#SVGID_12_);fill:none;stroke:#CEE7DE;stroke-width:3;stroke-linecap:round;stroke-linejoin:round;stroke-miterlimit:10;}
	.st38{clip-path:url(#SVGID_12_);fill:none;stroke:#CEE7DE;stroke-width:3;stroke-miterlimit:10;}
	.st39{clip-path:url(#SVGID_12_);fill:none;stroke:#CEE7DE;stroke-width:3;}
	.st40{clip-path:url(#SVGID_12_);fill:#99D0C1;stroke:#CEE7DE;stroke-width:3;}
	
		.st41{clip-path:url(#SVGID_14_);fill:none;stroke:#99D0C1;stroke-width:3;stroke-linecap:round;stroke-linejoin:round;stroke-miterlimit:10;}
	.st42{fill:none;stroke:#241D4F;stroke-width:14.6673;stroke-miterlimit:10;}
	.st43{fill:none;stroke:#241D4F;stroke-width:5.2202;stroke-linecap:round;stroke-linejoin:round;stroke-miterlimit:10;}
	.st44{fill:none;stroke:#E84133;stroke-width:3.4802;stroke-linecap:round;stroke-linejoin:round;stroke-miterlimit:10;}
	.st45{fill:none;stroke:#241D4F;stroke-width:3.4802;stroke-miterlimit:10;}
	.st46{fill:none;stroke:#2B2658;stroke-width:6.9603;stroke-linecap:round;stroke-linejoin:round;stroke-miterlimit:10;}
	.st47{fill:none;stroke:#FFFFFF;stroke-width:4;stroke-linecap:round;stroke-linejoin:round;stroke-miterlimit:10;}
	.st48{fill:none;stroke:#241D4F;stroke-width:3.4802;stroke-linecap:round;stroke-linejoin:round;stroke-miterlimit:10;}
	.st49{fill:none;stroke:#241D4F;stroke-width:15;stroke-miterlimit:10;}
	
		.st50{clip-path:url(#SVGID_16_);fill:none;stroke:#CEE7DE;stroke-width:5.6502;stroke-linecap:round;stroke-linejoin:round;stroke-miterlimit:10;}
	.st51{fill:none;stroke:#CEE7DE;stroke-width:5.6502;}
	.st52{fill:none;stroke:#CEE7DE;stroke-width:4.5442;stroke-miterlimit:10;}
	.st53{fill:none;stroke:#241D4F;stroke-width:6.0589;stroke-miterlimit:10;}
	.st54{fill:none;stroke:#241D4F;stroke-width:9.0884;stroke-linecap:round;stroke-linejoin:round;stroke-miterlimit:10;}
	.st55{fill:none;stroke:#E84133;stroke-width:6.0589;stroke-linecap:round;stroke-linejoin:round;stroke-miterlimit:10;}
	.st56{fill:none;stroke:#241D4F;stroke-width:6.0589;stroke-linecap:round;stroke-linejoin:round;stroke-miterlimit:10;}
	.st57{clip-path:url(#XMLID_11_);}
	.st58{fill:none;stroke:#CEE7DE;stroke-width:4.786;stroke-linecap:round;stroke-linejoin:round;stroke-miterlimit:10;}
	.st59{fill:none;stroke:#241D4F;stroke-width:6.3813;stroke-miterlimit:10;}
	.st60{fill:none;stroke:#2B2658;stroke-width:12.7627;stroke-linecap:round;stroke-linejoin:round;stroke-miterlimit:10;}
	.st61{fill:none;stroke:#FFFFFF;stroke-width:3.4802;stroke-linecap:round;stroke-linejoin:round;stroke-miterlimit:10;}
	.st62{fill:none;stroke:#FFFFFF;stroke-width:3.4802;stroke-miterlimit:10;}
	.st63{fill:none;stroke:#FFFFFF;stroke-width:6.4839;stroke-miterlimit:10;}
	
		.st64{clip-path:url(#SVGID_18_);fill:none;stroke:#CEE7DE;stroke-width:3;stroke-linecap:round;stroke-linejoin:round;stroke-miterlimit:10;}
	.st65{clip-path:url(#SVGID_18_);fill:none;stroke:#CEE7DE;stroke-width:3;stroke-miterlimit:10;}
	.st66{clip-path:url(#SVGID_18_);fill:none;stroke:#CEE7DE;stroke-width:3;}
	.st67{clip-path:url(#SVGID_18_);fill:#99D0C1;stroke:#CEE7DE;stroke-width:3;}
	
		.st68{clip-path:url(#SVGID_20_);fill:none;stroke:#99D0C1;stroke-width:3;stroke-linecap:round;stroke-linejoin:round;stroke-miterlimit:10;}
	.st69{fill:none;stroke:#241D4F;stroke-width:18;stroke-miterlimit:10;}
	.st70{clip-path:url(#XMLID_12_);}
	.st71{fill:none;stroke:#FFFFFF;stroke-width:4;stroke-miterlimit:10;}
	
		.st72{clip-path:url(#SVGID_22_);fill:none;stroke:#CEE7DE;stroke-width:3;stroke-linecap:round;stroke-linejoin:round;stroke-miterlimit:10;}
	.st73{clip-path:url(#SVGID_22_);fill:none;stroke:#CEE7DE;stroke-width:3;stroke-miterlimit:10;}
	.st74{clip-path:url(#SVGID_22_);fill:none;stroke:#CEE7DE;stroke-width:3;}
	.st75{clip-path:url(#SVGID_22_);fill:#99D0C1;stroke:#CEE7DE;stroke-width:3;}
	
		.st76{clip-path:url(#SVGID_24_);fill:none;stroke:#99D0C1;stroke-width:3;stroke-linecap:round;stroke-linejoin:round;stroke-miterlimit:10;}
	.st77{clip-path:url(#XMLID_13_);}
	.st78{fill:none;stroke:#2B2658;stroke-width:8;stroke-linecap:round;stroke-linejoin:round;stroke-miterlimit:10;}
	
		.st79{clip-path:url(#SVGID_26_);fill:none;stroke:#CEE7DE;stroke-width:4.8373;stroke-linecap:round;stroke-linejoin:round;stroke-miterlimit:10;}
	.st80{clip-path:url(#SVGID_26_);fill:none;stroke:#CEE7DE;stroke-width:4.8373;stroke-miterlimit:10;}
	.st81{clip-path:url(#SVGID_26_);fill:none;stroke:#CEE7DE;stroke-width:4.8373;}
	.st82{clip-path:url(#SVGID_26_);fill:#99D0C1;stroke:#CEE7DE;stroke-width:4.8373;}
	
		.st83{clip-path:url(#SVGID_28_);fill:none;stroke:#CEE7DE;stroke-width:5.6502;stroke-linecap:round;stroke-linejoin:round;stroke-miterlimit:10;}
	.st84{clip-path:url(#XMLID_14_);}
	.st85{clip-path:url(#XMLID_15_);}
	
		.st86{clip-path:url(#SVGID_30_);fill:none;stroke:#CEE7DE;stroke-width:3;stroke-linecap:round;stroke-linejoin:round;stroke-miterlimit:10;}
	.st87{clip-path:url(#SVGID_30_);fill:none;stroke:#CEE7DE;stroke-width:3;stroke-miterlimit:10;}
	.st88{clip-path:url(#SVGID_30_);fill:none;stroke:#CEE7DE;stroke-width:3;}
	.st89{clip-path:url(#SVGID_30_);fill:#99D0C1;stroke:#CEE7DE;stroke-width:3;}
	
		.st90{clip-path:url(#SVGID_32_);fill:none;stroke:#99D0C1;stroke-width:3;stroke-linecap:round;stroke-linejoin:round;stroke-miterlimit:10;}
	.st91{clip-path:url(#XMLID_16_);}
	.st92{fill:none;stroke:#E84133;stroke-width:6;stroke-linecap:round;stroke-linejoin:round;stroke-miterlimit:10;}
	.st93{clip-path:url(#XMLID_17_);}
	.st94{fill:none;stroke:#2B2658;stroke-width:7;stroke-linecap:round;stroke-linejoin:round;stroke-miterlimit:10;}
</style>
<g>
	<g>
		<g>
			<path class="st8" d="M511.4,497.2L511.4,497.2c-20.5,0-37.1-16.6-37.1-37.1v-81.7c0-20.5,16.6-37.1,37.1-37.1h0
				c20.5,0,37.1,16.6,37.1,37.1v81.7C548.5,480.5,531.9,497.2,511.4,497.2z"/>
			<circle class="st8" cx="511.4" cy="296.4" r="32.9"/>
			<g>
				<path class="st8" d="M488.2,598.4c-7.7,0-13.9-6.2-13.9-13.9V457.3c0-7.7,6.2-13.9,13.9-13.9s13.9,6.2,13.9,13.9v127.2
					C502.1,592.1,495.9,598.4,488.2,598.4z"/>
			</g>
			<g>
				<path class="st8" d="M419.6,456.2c-3.4,0-6.8-1.2-9.5-3.8c-5.6-5.2-5.9-14.1-0.7-19.7l73.8-78.9c5.2-5.6,14.1-5.9,19.7-0.7
					c5.6,5.2,5.9,14.1,0.7,19.7l-73.8,78.9C427,454.7,423.3,456.2,419.6,456.2z"/>
			</g>
			<g>
				<path class="st8" d="M534.8,598.4c-7.7,0-13.9-6.2-13.9-13.9V457.3c0-7.7,6.2-13.9,13.9-13.9c7.7,0,13.9,6.2,13.9,13.9v127.2
					C548.7,592.1,542.5,598.4,534.8,598.4z"/>
			</g>
		</g>
		<g>
			<path class="st8" d="M582.4,419.6c-3.1,0-6.2-1-8.8-3.1l-56.3-44.6c-6.1-4.8-7.1-13.7-2.3-19.8c4.8-6.1,13.7-7.1,19.8-2.3
				l47.7,37.8l33.9-25.6c6.2-4.7,15.1-3.5,19.8,2.8c4.7,6.2,3.4,15.1-2.8,19.8l-42.6,32.1C588.4,418.6,585.4,419.6,582.4,419.6z"/>
		</g>
	</g>
	<g>
		<g>
			<g>
				<path class="st8" d="M667.4,405.9c-0.9,0-1.8-0.3-2.6-0.8l-86-57.7c-2.2-1.4-2.7-4.4-1.3-6.5c1.4-2.2,4.4-2.7,6.5-1.3l86,57.7
					c2.2,1.4,2.7,4.4,1.3,6.5C670.4,405.2,668.9,405.9,667.4,405.9z"/>
			</g>
			<g>
				<g>
					<path class="st8" d="M579.4,364.9c-0.9,0-1.8-0.3-2.6-0.8c-2.2-1.4-2.7-4.4-1.3-6.5l16.6-24.7c1.4-2.2,4.4-2.7,6.5-1.3
						c2.2,1.4,2.7,4.4,1.3,6.5l-16.6,24.7C582.4,364.1,580.9,364.9,579.4,364.9z"/>
				</g>
				<g>
					<path class="st8" d="M586.8,371.9c-0.9,0-1.8-0.3-2.6-0.8c-2.2-1.4-2.7-4.4-1.3-6.5l18.5-27.5c1.4-2.2,4.4-2.7,6.5-1.3
						c2.2,1.4,2.7,4.4,1.3,6.5l-18.5,27.5C589.8,371.1,588.3,371.9,586.8,371.9z"/>
				</g>
			</g>
		</g>
		<g>
			<g>
				<path class="st8" d="M651.9,413.5c-0.9,0-1.8-0.3-2.6-0.8c-2.2-1.4-2.7-4.4-1.3-6.5l16.6-24.7c1.4-2.2,4.4-2.7,6.5-1.3
					c2.2,1.4,2.7,4.4,1.3,6.5l-16.6,24.7C655,412.8,653.5,413.5,651.9,413.5z"/>
			</g>
			<g>
				<path class="st8" d="M642.7,409.3c-0.9,0-1.8-0.3-2.6-0.8c-2.2-1.4-2.7-4.4-1.3-6.5l18.5-27.5c1.4-2.2,4.4-2.7,6.5-1.3
					c2.2,1.4,2.7,4.4,1.3,6.5l-18.5,27.5C645.7,408.6,644.2,409.3,642.7,409.3z"/>
			</g>
		</g>
	</g>
</g>
<path class="st10" d="M545.7,246.7h169.1c52.8,0,95.6-42.8,95.6-95.6v0c0-52.8-42.8-95.6-95.6-95.6h-73.5
	c-52.8,0-95.6,42.8-95.6,95.6V246.7z"/>
<g>
	<path class="st9" d="M406.7,531.8c0,0-56.6,32.4-118.7,32.4s-118.7-32.4-118.7-32.4l92.2-172.7c13.2-24.6,46.4-24.2,58.9,0.8
		L406.7,531.8z"/>
	<g>
		<g>
			<g>
				<path class="st8" d="M279.6,300.3c-0.2,0.1-1.2,9.8-5,24.3c-3.8,14-10.3,32.8-21.5,39.4c-11.5,6.4-24.9,1.7-35.5,8.2
					c-10.6,4.5-18.3,20.1-18,19.8c-1.3,3.8,8.5-48.4,32.3-59.2c11.4-5.5,23.2-5.1,32.2-12.6C273.2,314.1,279.5,300,279.6,300.3z"/>
			</g>
			<g>
				<path class="st8" d="M325.5,495.4h-48.6c-12.3,0-22.3-10-22.3-22.3V369.9c0-16.5,13.4-29.9,29.9-29.9H298
					c16.9,0,30.6,13.7,30.6,30.6v121.6C328.6,494,327.2,495.4,325.5,495.4z"/>
				<g>
					<g>
						<path class="st8" d="M206.4,456.6c1,3.2,3.2,6.1,6.4,7.9c6.7,3.7,15.1,1.4,18.9-5.3l52.6-93.9c3.7-6.7,1.4-15.1-5.3-18.9
							c-6.7-3.7-15.1-1.4-18.9,5.3l-52.6,93.9C205.6,449.1,205.3,453.1,206.4,456.6z"/>
					</g>
					<g>
						<path class="st8" d="M379.9,458.2c1-3.6,0.6-7.5-1.4-11l-55-92.5c-3.9-6.6-12.4-8.7-19-4.8c-6.6,3.9-8.7,12.4-4.8,19l55,92.5
							c3.9,6.6,12.4,8.7,19,4.8C376.8,464.3,379,461.4,379.9,458.2z"/>
					</g>
				</g>
				<g>
					<path class="st8" d="M321.9,596.3c-7.6,0.5-14.2-5.5-14.7-13.4l-8-130.4c-0.5-7.9,5.3-14.7,13-15.1c7.6-0.5,14.2,5.5,14.7,13.4
						l8,130.4C335.4,589.1,329.6,595.9,321.9,596.3z"/>
				</g>
			</g>
			<circle class="st8" cx="291.6" cy="295.4" r="32.8"/>
		</g>
		<g>
			<path class="st8" d="M241.9,597.1c-2,0-4-0.4-5.9-1.4c-6.6-3.3-9.4-11.3-6.1-17.9l20.1-40.9l5.5-59.4c0.7-7.4,7.2-12.8,14.6-12.1
				c7.4,0.7,12.8,7.2,12.1,14.6l-5.7,61.8c-0.1,1.6-0.6,3.2-1.3,4.7l-21.2,43.1C251.6,594.3,246.8,597.1,241.9,597.1z"/>
		</g>
	</g>
	<path class="st10" d="M289.9,368.2c-14,0-25.3,11.3-25.3,25.3c0,14,11.3,25.3,25.3,25.3c14,0,25.3-11.3,25.3-25.3
		C315.1,379.6,303.8,368.2,289.9,368.2z M288.5,403.8c-2,0-3.6-1.6-3.6-3.6c0-2,1.6-3.6,3.6-3.6c2,0,3.6,1.6,3.6,3.6
		C292.1,402.2,290.5,403.8,288.5,403.8z M294.1,394.6h-13.5c-3.9,0-7.1-3.2-7.1-7.1s3.2-7.1,7.1-7.1h6.3c3.9,0,7.1,3.2,7.1,7.1
		V394.6z M300.2,406.6c-3.3,0-6-2.7-6-6v-6h6c3.3,0,6,2.7,6,6C306.2,403.9,303.5,406.6,300.2,406.6z"/>
</g>
<path class="st7" d="M226.8,298h-73.3c-37.1,0-67.2-30.1-67.2-67.2v0c0-37.1,30.1-67.2,67.2-67.2h6.1c37.1,0,67.2,30.1,67.2,67.2
	V298z"/>
<line class="st94" x1="115.9" y1="222.3" x2="198" y2="222.3"/>
<line class="st94" x1="115.9" y1="248.2" x2="198" y2="248.2"/>
<g>
	<line class="st94" x1="598.1" y1="119.9" x2="756.6" y2="119.9"/>
	<line class="st94" x1="598.1" y1="147.8" x2="756.6" y2="147.8"/>
	<line class="st94" x1="598.1" y1="175.1" x2="703.6" y2="175.1"/>
</g>
</svg>
