<?xml version="1.0" encoding="utf-8"?>
<!-- Generator: Adobe Illustrator 25.2.1, SVG Export Plug-In . SVG Version: 6.00 Build 0)  -->
<svg version="1.1" id="Ebene_1" xmlns="http://www.w3.org/2000/svg" xmlns:xlink="http://www.w3.org/1999/xlink" x="0px" y="0px"
	 viewBox="0 0 837.4 598.5" style="enable-background:new 0 0 837.4 598.5;" xml:space="preserve">
<style type="text/css">
	.st0{fill:#99D0C1;}
	
		.st1{clip-path:url(#SVGID_2_);fill:none;stroke:#CEE7DE;stroke-width:4.8373;stroke-linecap:round;stroke-linejoin:round;stroke-miterlimit:10;}
	.st2{clip-path:url(#SVGID_2_);fill:none;stroke:#CEE7DE;stroke-width:4.8373;stroke-miterlimit:10;}
	.st3{clip-path:url(#SVGID_2_);fill:none;stroke:#CEE7DE;stroke-width:4.8373;}
	.st4{clip-path:url(#SVGID_2_);fill:#99D0C1;stroke:#CEE7DE;stroke-width:4.8373;}
	.st5{fill:none;stroke:#CEE7DE;stroke-width:4.8373;stroke-miterlimit:10;}
	.st6{fill:none;stroke:#241D4F;stroke-width:6.4498;stroke-miterlimit:10;}
	.st7{fill:#FFD962;}
	.st8{fill:#241D4F;}
	.st9{fill:#E84133;}
	.st10{fill:#FFFFFF;}
	.st11{fill:none;stroke:#241D4F;stroke-width:6.4498;stroke-linecap:round;stroke-linejoin:round;stroke-miterlimit:10;}
	.st12{fill:none;stroke:#FFFFFF;stroke-width:6.4498;stroke-linecap:round;stroke-linejoin:round;stroke-miterlimit:10;}
	.st13{fill:#CEE7DE;}
	
		.st14{clip-path:url(#SVGID_4_);fill:none;stroke:#CEE7DE;stroke-width:3;stroke-linecap:round;stroke-linejoin:round;stroke-miterlimit:10;}
	.st15{clip-path:url(#SVGID_4_);fill:none;stroke:#CEE7DE;stroke-width:3;stroke-miterlimit:10;}
	.st16{clip-path:url(#SVGID_4_);fill:none;stroke:#CEE7DE;stroke-width:3;}
	.st17{clip-path:url(#SVGID_4_);fill:#99D0C1;stroke:#CEE7DE;stroke-width:3;}
	
		.st18{clip-path:url(#SVGID_6_);fill:none;stroke:#99D0C1;stroke-width:3;stroke-linecap:round;stroke-linejoin:round;stroke-miterlimit:10;}
	.st19{clip-path:url(#SVGID_6_);fill:none;stroke:#99D0C1;stroke-width:3;stroke-miterlimit:10;}
	.st20{clip-path:url(#SVGID_6_);fill:none;stroke:#99D0C1;stroke-width:3;}
	.st21{clip-path:url(#SVGID_6_);fill:#CEE7DE;stroke:#99D0C1;stroke-width:3;}
	.st22{fill:none;stroke:#99D0C1;stroke-width:3;stroke-miterlimit:10;}
	
		.st23{clip-path:url(#SVGID_8_);fill:none;stroke:#99D0C1;stroke-width:3;stroke-linecap:round;stroke-linejoin:round;stroke-miterlimit:10;}
	
		.st24{clip-path:url(#SVGID_10_);fill:none;stroke:#99D0C1;stroke-width:3;stroke-linecap:round;stroke-linejoin:round;stroke-miterlimit:10;}
	.st25{fill:none;stroke:#99D0C1;stroke-width:3;}
	.st26{fill:none;stroke:#99D0C1;stroke-width:3;stroke-linecap:round;stroke-linejoin:round;stroke-miterlimit:10;}
	.st27{fill:none;stroke:#CEE7DE;stroke-width:3;stroke-miterlimit:10;}
	.st28{fill:none;stroke:#FFFFFF;stroke-width:3;stroke-miterlimit:10;stroke-dasharray:7.72,51.4664,7.72,51.4664,7.72,51.4664;}
	.st29{fill:none;stroke:#241D4F;stroke-width:4;stroke-miterlimit:10;}
	.st30{fill:none;stroke:#2B2658;stroke-width:13;stroke-linecap:round;stroke-linejoin:round;stroke-miterlimit:10;}
	.st31{fill:none;stroke:#241D4F;stroke-width:6;stroke-linecap:round;stroke-linejoin:round;stroke-miterlimit:10;}
	.st32{fill:none;stroke:#E84133;stroke-width:4;stroke-linecap:round;stroke-linejoin:round;stroke-miterlimit:10;}
	.st33{fill:none;stroke:#241D4F;stroke-width:4;stroke-linecap:round;stroke-linejoin:round;stroke-miterlimit:10;}
	.st34{clip-path:url(#XMLID_10_);}
	.st35{fill:none;stroke:#241D4F;stroke-width:63;stroke-linecap:round;stroke-linejoin:round;stroke-miterlimit:10;}
	
		.st36{fill:none;stroke:#FFFFFF;stroke-width:9;stroke-linecap:round;stroke-linejoin:round;stroke-miterlimit:10;stroke-dasharray:30,80;}
	
		.st37{clip-path:url(#SVGID_12_);fill:none;stroke:#CEE7DE;stroke-width:3;stroke-linecap:round;stroke-linejoin:round;stroke-miterlimit:10;}
	.st38{clip-path:url(#SVGID_12_);fill:none;stroke:#CEE7DE;stroke-width:3;stroke-miterlimit:10;}
	.st39{clip-path:url(#SVGID_12_);fill:none;stroke:#CEE7DE;stroke-width:3;}
	.st40{clip-path:url(#SVGID_12_);fill:#99D0C1;stroke:#CEE7DE;stroke-width:3;}
	
		.st41{clip-path:url(#SVGID_14_);fill:none;stroke:#99D0C1;stroke-width:3;stroke-linecap:round;stroke-linejoin:round;stroke-miterlimit:10;}
	.st42{fill:none;stroke:#241D4F;stroke-width:14.6673;stroke-miterlimit:10;}
	.st43{fill:none;stroke:#241D4F;stroke-width:5.2202;stroke-linecap:round;stroke-linejoin:round;stroke-miterlimit:10;}
	.st44{fill:none;stroke:#E84133;stroke-width:3.4802;stroke-linecap:round;stroke-linejoin:round;stroke-miterlimit:10;}
	.st45{fill:none;stroke:#241D4F;stroke-width:3.4802;stroke-miterlimit:10;}
	.st46{fill:none;stroke:#2B2658;stroke-width:6.9603;stroke-linecap:round;stroke-linejoin:round;stroke-miterlimit:10;}
	.st47{fill:none;stroke:#FFFFFF;stroke-width:4;stroke-linecap:round;stroke-linejoin:round;stroke-miterlimit:10;}
	.st48{fill:none;stroke:#241D4F;stroke-width:3.4802;stroke-linecap:round;stroke-linejoin:round;stroke-miterlimit:10;}
	.st49{fill:none;stroke:#241D4F;stroke-width:15;stroke-miterlimit:10;}
	
		.st50{clip-path:url(#SVGID_16_);fill:none;stroke:#CEE7DE;stroke-width:5.6502;stroke-linecap:round;stroke-linejoin:round;stroke-miterlimit:10;}
	.st51{fill:none;stroke:#CEE7DE;stroke-width:5.6502;}
	.st52{fill:none;stroke:#CEE7DE;stroke-width:4.5442;stroke-miterlimit:10;}
	.st53{fill:none;stroke:#241D4F;stroke-width:6.0589;stroke-miterlimit:10;}
	.st54{fill:none;stroke:#241D4F;stroke-width:9.0884;stroke-linecap:round;stroke-linejoin:round;stroke-miterlimit:10;}
	.st55{fill:none;stroke:#E84133;stroke-width:6.0589;stroke-linecap:round;stroke-linejoin:round;stroke-miterlimit:10;}
	.st56{fill:none;stroke:#241D4F;stroke-width:6.0589;stroke-linecap:round;stroke-linejoin:round;stroke-miterlimit:10;}
	.st57{clip-path:url(#XMLID_11_);}
	.st58{fill:none;stroke:#CEE7DE;stroke-width:4.786;stroke-linecap:round;stroke-linejoin:round;stroke-miterlimit:10;}
	.st59{fill:none;stroke:#241D4F;stroke-width:6.3813;stroke-miterlimit:10;}
	.st60{fill:none;stroke:#2B2658;stroke-width:12.7627;stroke-linecap:round;stroke-linejoin:round;stroke-miterlimit:10;}
	.st61{fill:none;stroke:#FFFFFF;stroke-width:3.4802;stroke-linecap:round;stroke-linejoin:round;stroke-miterlimit:10;}
	.st62{fill:none;stroke:#FFFFFF;stroke-width:3.4802;stroke-miterlimit:10;}
	.st63{fill:none;stroke:#FFFFFF;stroke-width:6.4839;stroke-miterlimit:10;}
	
		.st64{clip-path:url(#SVGID_18_);fill:none;stroke:#CEE7DE;stroke-width:3;stroke-linecap:round;stroke-linejoin:round;stroke-miterlimit:10;}
	.st65{clip-path:url(#SVGID_18_);fill:none;stroke:#CEE7DE;stroke-width:3;stroke-miterlimit:10;}
	.st66{clip-path:url(#SVGID_18_);fill:none;stroke:#CEE7DE;stroke-width:3;}
	.st67{clip-path:url(#SVGID_18_);fill:#99D0C1;stroke:#CEE7DE;stroke-width:3;}
	
		.st68{clip-path:url(#SVGID_20_);fill:none;stroke:#99D0C1;stroke-width:3;stroke-linecap:round;stroke-linejoin:round;stroke-miterlimit:10;}
	.st69{fill:none;stroke:#241D4F;stroke-width:18;stroke-miterlimit:10;}
	.st70{clip-path:url(#XMLID_12_);}
	.st71{fill:none;stroke:#FFFFFF;stroke-width:4;stroke-miterlimit:10;}
	
		.st72{clip-path:url(#SVGID_22_);fill:none;stroke:#CEE7DE;stroke-width:3;stroke-linecap:round;stroke-linejoin:round;stroke-miterlimit:10;}
	.st73{clip-path:url(#SVGID_22_);fill:none;stroke:#CEE7DE;stroke-width:3;stroke-miterlimit:10;}
	.st74{clip-path:url(#SVGID_22_);fill:none;stroke:#CEE7DE;stroke-width:3;}
	.st75{clip-path:url(#SVGID_22_);fill:#99D0C1;stroke:#CEE7DE;stroke-width:3;}
	
		.st76{clip-path:url(#SVGID_24_);fill:none;stroke:#99D0C1;stroke-width:3;stroke-linecap:round;stroke-linejoin:round;stroke-miterlimit:10;}
	.st77{clip-path:url(#XMLID_13_);}
	.st78{fill:none;stroke:#2B2658;stroke-width:8;stroke-linecap:round;stroke-linejoin:round;stroke-miterlimit:10;}
	
		.st79{clip-path:url(#SVGID_26_);fill:none;stroke:#CEE7DE;stroke-width:4.8373;stroke-linecap:round;stroke-linejoin:round;stroke-miterlimit:10;}
	.st80{clip-path:url(#SVGID_26_);fill:none;stroke:#CEE7DE;stroke-width:4.8373;stroke-miterlimit:10;}
	.st81{clip-path:url(#SVGID_26_);fill:none;stroke:#CEE7DE;stroke-width:4.8373;}
	.st82{clip-path:url(#SVGID_26_);fill:#99D0C1;stroke:#CEE7DE;stroke-width:4.8373;}
	
		.st83{clip-path:url(#SVGID_28_);fill:none;stroke:#CEE7DE;stroke-width:5.6502;stroke-linecap:round;stroke-linejoin:round;stroke-miterlimit:10;}
	.st84{clip-path:url(#XMLID_14_);}
	.st85{clip-path:url(#XMLID_15_);}
	
		.st86{clip-path:url(#SVGID_30_);fill:none;stroke:#CEE7DE;stroke-width:3;stroke-linecap:round;stroke-linejoin:round;stroke-miterlimit:10;}
	.st87{clip-path:url(#SVGID_30_);fill:none;stroke:#CEE7DE;stroke-width:3;stroke-miterlimit:10;}
	.st88{clip-path:url(#SVGID_30_);fill:none;stroke:#CEE7DE;stroke-width:3;}
	.st89{clip-path:url(#SVGID_30_);fill:#99D0C1;stroke:#CEE7DE;stroke-width:3;}
	
		.st90{clip-path:url(#SVGID_32_);fill:none;stroke:#99D0C1;stroke-width:3;stroke-linecap:round;stroke-linejoin:round;stroke-miterlimit:10;}
	.st91{clip-path:url(#XMLID_16_);}
	.st92{fill:none;stroke:#E84133;stroke-width:6;stroke-linecap:round;stroke-linejoin:round;stroke-miterlimit:10;}
	.st93{clip-path:url(#XMLID_17_);}
	.st94{fill:none;stroke:#2B2658;stroke-width:7;stroke-linecap:round;stroke-linejoin:round;stroke-miterlimit:10;}
</style>
<g>
	<g>
		<g>
			<path class="st8" d="M549,492.5h-38c-21,0-38-17-38-38V333H549V492.5z"/>
			<g>
				<path class="st8" d="M487.3,596c-7.9,0-14.2-6.4-14.2-14.2V451.7c0-7.9,6.4-14.2,14.2-14.2c7.9,0,14.2,6.4,14.2,14.2v130.1
					C501.5,589.6,495.1,596,487.3,596z"/>
			</g>
			<g>
				<g>
					<path class="st8" d="M417.1,266.2c-3.5,0-7,1.3-9.7,3.8c-5.7,5.4-6,14.4-0.7,20.1l75.4,80.7c5.4,5.7,14.4,6,20.1,0.7
						c5.7-5.4,6-14.4,0.7-20.1l-75.4-80.7C424.7,267.7,420.9,266.2,417.1,266.2z"/>
				</g>
				<g>
					<path class="st8" d="M633.7,286.4c-3.6-1.3-7.6-1.3-11.3,0.5l-99.1,48.8c-7.1,3.5-10,12-6.5,19.1c3.5,7.1,12,10,19.1,6.5
						l99.1-48.8c7.1-3.5,10-12,6.5-19.1C639.8,290.1,637,287.6,633.7,286.4z"/>
				</g>
			</g>
			<g>
				<path class="st8" d="M651.5,478.2c0,7.9-6.6,14.2-14.7,14.2H502.7c-8.1,0-14.7-6.4-14.7-14.2c0-7.9,6.6-14.2,14.7-14.2l134.1,0
					C644.9,464,651.5,470.4,651.5,478.2z"/>
			</g>
		</g>
		<circle class="st8" cx="511" cy="287.2" r="33.6"/>
	</g>
	<g>
		<path class="st94" d="M553.8,159.4l-33.6,3.7c0,0,2.9,26.7,21.7,47.5c13.4,14.8,29.1,18.9,38.9,20"/>
		<path class="st94" d="M704.6,143.1l33.5-3.6c0,0,2.9,26.7-11,51c-9.4,16.5-22.9,24-32.3,27.4"/>
		<path class="st7" d="M675.2,315l-6.4,0.7l-9-40.3c34-18.9,53.6-88.2,47-149.6l-155,16.9c6.7,61.4,40.8,124.8,78,136l-0.1,41.3
			l-6.4,0.7c-7.2,0.8-12.4,7.2-11.6,14.4c0.8,7.2,7.2,12.4,14.4,11.6l51.9-5.6c7.2-0.8,12.4-7.2,11.6-14.4
			C688.9,319.4,682.4,314.2,675.2,315z"/>
	</g>
</g>
<g>
	<path class="st9" d="M373.8,530.5c0,0-58.1,33.2-121.8,33.2s-121.8-33.2-121.8-33.2l94.6-177.3c13.5-25.3,47.6-24.8,60.5,0.9
		L373.8,530.5z"/>
	<path class="st8" d="M243.3,292.9c-0.2,0.2-1.3,10.1-5.1,24.9c-3.9,14.3-10.5,33.6-22,40.4c-11.8,6.5-25.6,1.8-36.4,8.4
		c-10.8,4.6-18.8,20.7-18.5,20.3c-1.3,3.9,8.7-49.7,33.1-60.8c11.7-5.7,23.8-5.2,33.1-13C236.8,307,243.2,292.6,243.3,292.9z"/>
	<g>
		<path class="st8" d="M293.7,493.1h-38c-21,0-38-17-38-38V333.7h75.9V493.1z"/>
		<g>
			<path class="st8" d="M232,596.6c-7.9,0-14.2-6.4-14.2-14.2V452.3c0-7.9,6.4-14.2,14.2-14.2c7.9,0,14.2,6.4,14.2,14.2v130.1
				C246.2,590.3,239.8,596.6,232,596.6z"/>
		</g>
		<g>
			<g>
				<path class="st8" d="M141,281.4c-3.4,0.9-6.4,3-8.4,6.2c-4.2,6.6-2.2,15.4,4.4,19.6l93.3,59.1c6.6,4.2,15.4,2.2,19.6-4.4
					c4.2-6.6,2.2-15.4-4.4-19.6l-93.3-59.1C148.7,281,144.6,280.5,141,281.4z"/>
			</g>
			<g>
				<path class="st8" d="M378.4,287.1c-3.6-1.3-7.6-1.3-11.3,0.5L268,336.4c-7.1,3.5-10,12-6.5,19.1c3.5,7.1,12,10,19.1,6.5
					l99.1-48.8c7.1-3.5,10-12,6.5-19.1C384.5,290.7,381.7,288.3,378.4,287.1z"/>
			</g>
		</g>
		<g>
			<path class="st8" d="M313.5,594.8c-7.5,2.3-15.5-2.1-17.9-9.8l-39.8-128.1c-2.4-7.7,1.7-15.9,9.2-18.2c7.5-2.3,15.5,2.1,17.9,9.8
				l39.8,128.1C325.2,584.4,321,592.5,313.5,594.8z"/>
		</g>
	</g>
	<circle class="st8" cx="255.7" cy="287.8" r="33.6"/>
	<path class="st10" d="M253.9,362.6c-14.3,0-25.9,11.6-25.9,25.9s11.6,25.9,25.9,25.9s25.9-11.6,25.9-25.9S268.2,362.6,253.9,362.6z
		 M252.5,399.1c-2.1,0-3.7-1.7-3.7-3.7s1.7-3.7,3.7-3.7c2.1,0,3.7,1.7,3.7,3.7C256.2,397.5,254.5,399.1,252.5,399.1z M258.3,389.6
		h-13.8c-4.1,0-7.3-3.3-7.3-7.3s3.3-7.3,7.3-7.3h6.5c4.1,0,7.3,3.3,7.3,7.3V389.6z M264.5,402c-3.4,0-6.2-2.8-6.2-6.2v-6.2h6.2
		c3.4,0,6.2,2.8,6.2,6.2C270.7,399.2,267.9,402,264.5,402z"/>
</g>
</svg>
