<svg width="32" height="32" viewBox="0 0 32 32" fill="none" xmlns="http://www.w3.org/2000/svg">
<path d="M20.2667 7.33333C19.2 7.33333 18.8 7.33333 16 7.33333C13.2 7.33333 12.8 7.33333 11.7333 7.33333C8.8 7.46667 7.46667 8.8 7.33333 11.7333C7.33333 12.8 7.33333 13.2 7.33333 16C7.33333 18.8 7.33333 19.2 7.33333 20.2667C7.46667 23.0667 8.8 24.5333 11.7333 24.6667C12.8 24.6667 13.2 24.6667 16 24.6667C18.8 24.6667 19.2 24.6667 20.2667 24.6667C23.2 24.5333 24.5333 23.2 24.6667 20.2667C24.6667 19.2 24.6667 18.8 24.6667 16C24.6667 13.2 24.6667 12.8 24.6667 11.7333C24.5333 8.8 23.2 7.46667 20.2667 7.33333ZM16 21.4667C12.9333 21.4667 10.5333 19.0667 10.5333 16C10.5333 12.9333 12.9333 10.5333 16 10.5333C19.0667 10.5333 21.4667 12.9333 21.4667 16C21.4667 19.0667 19.0667 21.4667 16 21.4667ZM21.7333 11.6C21.0667 11.6 20.4 11.0667 20.4 10.2667C20.4 9.46667 20.9333 8.93333 21.7333 8.93333C22.4 8.93333 23.0667 9.46667 23.0667 10.2667C23.0667 11.0667 22.4 11.6 21.7333 11.6ZM19.6 16C19.6 18 18 19.6 16 19.6C14 19.6 12.4 18 12.4 16C12.4 14 14 12.4 16 12.4C18 12.4 19.6 14 19.6 16ZM25.3333 0H6.66667C2.93333 0 0 2.93333 0 6.66667V25.3333C0 29.0667 2.93333 32 6.66667 32H25.3333C29.0667 32 32 29.0667 32 25.3333V6.66667C32 2.93333 29.0667 0 25.3333 0ZM26.6667 20.4C26.5333 24.2667 24.2667 26.4 20.4 26.6667C19.2 26.6667 18.9333 26.6667 16 26.6667C13.0667 26.6667 12.8 26.6667 11.6 26.6667C7.73333 26.5333 5.6 24.4 5.33333 20.4C5.33333 19.2 5.33333 18.9333 5.33333 16C5.33333 13.0667 5.33333 12.8 5.33333 11.6C5.6 7.73333 7.73333 5.6 11.6 5.33333C12.8 5.33333 13.0667 5.33333 16 5.33333C18.9333 5.33333 19.2 5.33333 20.4 5.33333C24.2667 5.46667 26.4 7.73333 26.6667 11.6C26.6667 12.8 26.6667 13.0667 26.6667 16C26.6667 18.9333 26.6667 19.2 26.6667 20.4Z" fill="white"/>
</svg>
