<?xml version="1.0" encoding="utf-8"?>
<!-- Generator: Adobe Illustrator 25.2.1, SVG Export Plug-In . SVG Version: 6.00 Build 0)  -->
<svg version="1.1" id="Ebene_1" xmlns="http://www.w3.org/2000/svg" xmlns:xlink="http://www.w3.org/1999/xlink" x="0px" y="0px"
	 viewBox="0 0 189.9 189.9" style="enable-background:new 0 0 189.9 189.9;" xml:space="preserve">
<style type="text/css">
	.st0{fill:#99D0C1;}
	.st1{fill:#2B2658;}
	.st2{fill:#FFFFFF;}
	.st3{fill:#E84133;}
	.st4{fill:none;}
	.st5{fill:#99D0C2;}
	.st6{fill:#FFD963;}
	.st7{fill:#241D4F;}
	.st8{fill:#2A2758;}
	.st9{fill:none;stroke:#FFFFFF;stroke-width:6.9816;stroke-miterlimit:10;}
</style>
<g>
	<defs>
		<circle id="XMLID_2_" cx="95" cy="95" r="95"/>
	</defs>
	<use xlink:href="#XMLID_2_"  style="overflow:visible;fill:#98D0C1;"/>
	<clipPath id="XMLID_4_">
		<use xlink:href="#XMLID_2_"  style="overflow:visible;"/>
	</clipPath>
</g>
<g>
	<path class="st1" d="M110.4,94l43.5,40V55.3h0c-0.2,0.2-0.3,0.5-0.6,0.7L110.4,94z"/>
	<path class="st1" d="M79.6,94L36.6,55.9c-0.2-0.2-0.4-0.4-0.6-0.7h0v79.1L79.6,94z"/>
	<path class="st1" d="M105.5,98.4l-8.4,7.4c-0.6,0.5-1.4,0.8-2.2,0.8s-1.5-0.3-2.2-0.8l-8.3-7.4l-39.2,36.3H145L105.5,98.4z"/>
	<polygon class="st1" points="95,99 144.2,55.3 45.7,55.3 	"/>
</g>
</svg>
