<svg id="Ebene_1" data-name="Ebene 1" xmlns="http://www.w3.org/2000/svg" viewBox="0 0 189.92 189.92"><defs><style>.cls-1{fill:#2b2658;}.cls-2{fill:#fff;}</style></defs><circle class="cls-1" cx="94.96" cy="94.96" r="94.96"/><path class="cls-2" d="M127.24,122.2a3.94,3.94,0,0,0,.1-5.56L113.9,102.73a3.92,3.92,0,0,0-6.08,4.92,11,11,0,0,1-13.93-1.51l-11.63-12a11,11,0,0,1-1-14,3.93,3.93,0,0,0,5-6L72.78,60.14a3.93,3.93,0,0,0-5.93,5.15c-6,7.77-6.35,17.94-.46,24L98.1,122.17c5.89,6.1,16.08,6,24.06.35A3.94,3.94,0,0,0,127.24,122.2Z"/><path class="cls-2" d="M95,32.06a60.69,60.69,0,0,0-47.77,98.15L42.82,154a3.26,3.26,0,0,0,3.2,3.85,3.44,3.44,0,0,0,1.25-.25l22.86-9.46A60.09,60.09,0,0,0,95,153.48,60.71,60.71,0,0,0,95,32.06Zm0,114.42a53.2,53.2,0,0,1-23-5.15l-.11.23a3.25,3.25,0,0,0-2.63-.08L50.3,149.32l3.61-19.7a3.24,3.24,0,0,0-.69-2.64l.2-.17A53.71,53.71,0,1,1,95,146.48Z"/></svg>