<svg id="Ebene_1" data-name="Ebene 1" xmlns="http://www.w3.org/2000/svg" viewBox="0 0 189.92 189.92"><defs><style>.cls-1{fill:#fff;}.cls-2{fill:#2b2658;}</style></defs><circle class="cls-1" cx="94.96" cy="94.96" r="94.96"/><path class="cls-2" d="M145.68,141.56a6.26,6.26,0,0,0,.15-8.83L124.5,110.64a6.24,6.24,0,0,0-9.67,7.82,17.44,17.44,0,0,1-22.11-2.41L74.24,96.92a17.44,17.44,0,0,1-1.59-22.24,6.25,6.25,0,0,0,7.87-9.59L59.19,43a6.25,6.25,0,0,0-9.42,8.18C40.31,63.52,39.69,79.67,49,89.36L99.39,141.5c9.37,9.7,25.56,9.63,38.23.57A6.25,6.25,0,0,0,145.68,141.56Z"/></svg>