<svg width="32" height="32" viewBox="0 0 32 32" fill="none" xmlns="http://www.w3.org/2000/svg">
<path d="M26.2667 0H5.73333C2.66667 0 0 2.66667 0 5.73333V26.1333C0 29.3333 2.66667 32 5.73333 32H17.0667V19.6H12.9333V14.8H17.0667V11.2C17.0667 7.06667 19.6 4.8 23.3333 4.8C25.0667 4.8 26.6667 4.93333 27.0667 4.93333V9.33333H24.5333C22.5333 9.33333 22.1333 10.2667 22.1333 11.7333V14.8H26.9333L26.2667 19.6H22.1333V32H26.2667C29.4667 32 32 29.3333 32 26.2667V5.73333C32 2.66667 29.3333 0 26.2667 0Z" fill="white"/>
</svg>
