<svg id="Ebene_1" data-name="Ebene 1" xmlns="http://www.w3.org/2000/svg" viewBox="0 0 189.92 242.04"><defs><style>.cls-1{fill:#2b2658;}.cls-2{fill:#fff;}.cls-3{fill:#99d0c2;}.cls-4{fill:#ffd963;}</style></defs><path class="cls-1" d="M189.92,95C189.92,147.41,95,242,95,242S0,147.41,0,95a95,95,0,0,1,189.92,0Z"/><circle class="cls-2" cx="93.91" cy="91.4" r="62.36"/><path class="cls-3" d="M104.46,108.87V94h14.87a14.86,14.86,0,0,1,14.87,14.86h0a14.87,14.87,0,0,1-14.87,14.87h0a14.86,14.86,0,0,1-14.87-14.87Z"/><path class="cls-4" d="M71.21,58.74H86.82a17.63,17.63,0,0,1,17.63,17.63V94H71.21A17.63,17.63,0,0,1,53.58,76.37h0A17.63,17.63,0,0,1,71.21,58.74Z"/><circle class="cls-1" cx="90.51" cy="107.93" r="8.92"/></svg>