<svg width="39" height="39" viewBox="0 0 39 39" fill="none" xmlns="http://www.w3.org/2000/svg">
<path d="M19.4998 38.9996C30.2648 38.9996 38.9916 30.2728 38.9916 19.5078C38.9916 8.74276 30.2648 0.0159912 19.4998 0.0159912C8.73477 0.0159912 0.00799561 8.74276 0.00799561 19.5078C0.00799561 30.2728 8.73477 38.9996 19.4998 38.9996Z" fill="#2A2758"/>
<path d="M16.1405 28.0569C15.9766 28.0565 15.8145 28.0234 15.6636 27.9596C15.5127 27.8957 15.376 27.8025 15.2616 27.6852L8.07436 20.3398C7.84616 20.1059 7.72023 19.7909 7.72428 19.4642C7.72832 19.1374 7.862 18.8256 8.09592 18.5974C8.32983 18.3692 8.64482 18.2433 8.97158 18.2474C9.29834 18.2514 9.61011 18.3851 9.83831 18.619L16.1384 25.067L29.1597 11.8609C29.3892 11.6292 29.7012 11.4979 30.0274 11.4958C30.3536 11.4938 30.6673 11.6211 30.8997 11.85C31.1321 12.0789 31.2642 12.3906 31.2672 12.7167C31.2701 13.0429 31.1436 13.3569 30.9154 13.59L17.0194 27.6893C16.9046 27.8058 16.7678 27.8983 16.6169 27.9615C16.466 28.0246 16.3041 28.057 16.1405 28.0569Z" fill="white"/>
</svg>
