<svg id="Ebene_1" data-name="Ebene 1" xmlns="http://www.w3.org/2000/svg" viewBox="0 0 189.92 189.92"><defs><style>.cls-1{fill:#2b2658;}.cls-2{fill:#fff;}</style></defs><path class="cls-1" d="M189.87,95c1.77,52.4-42.5,94.94-94.94,94.94A94.94,94.94,0,0,1,0,95C0,42.54,42.52,1.44,94.93,0,146.92-1.36,187.9,36.42,189.87,95Z"/><path class="cls-2" d="M159.08,91.38h-7.42c-3-7.79-12.72-32.78-13-33.7-2.34-7.38-6.41-13.74-13.4-13.74H64.67c-7,0-11,6.37-13.4,13.74-.34,1.06-10,25.93-13,33.7H30.84a6.41,6.41,0,1,0,0,12.81h5.87v15.43a11.48,11.48,0,0,0,11,11.46v4.82a10.09,10.09,0,0,0,20.18,0v-4.79h55.78v4.79a10.09,10.09,0,0,0,20.18,0v-5a11.49,11.49,0,0,0,9.32-11.28V104.19h5.87a6.41,6.41,0,1,0,0-12.81Zm-95.37,26H52a6.41,6.41,0,0,1,0-12.81H63.71a6.41,6.41,0,1,1,0,12.81ZM94.43,81.08H54.29c3.33-12.6,5.3-18.53,5.51-19.38C61.2,56,64.64,51.31,69.93,51.31h50.32c5.29,0,8.73,4.71,10.13,10.39.21.85,2.18,6.78,5.51,19.38H94.43Zm44.25,36.28H126.93a6.41,6.41,0,1,1,0-12.81h11.75a6.41,6.41,0,1,1,0,12.81Z"/></svg>