<?xml version="1.0" encoding="utf-8"?>
<!-- Generator: Adobe Illustrator 25.2.1, SVG Export Plug-In . SVG Version: 6.00 Build 0)  -->
<svg version="1.1" id="Ebene_1" xmlns="http://www.w3.org/2000/svg" xmlns:xlink="http://www.w3.org/1999/xlink" x="0px" y="0px"
	 viewBox="0 0 189.9 189.9" style="enable-background:new 0 0 189.9 189.9;" xml:space="preserve">
<style type="text/css">
	.st0{fill:#99D0C1;}
	.st1{fill:#2B2658;}
	.st2{fill:#FFFFFF;}
	.st3{fill:#E84133;}
	.st4{fill:none;}
	.st5{fill:#99D0C2;}
	.st6{fill:#FFD963;}
	.st7{fill:#241D4F;}
	.st8{fill:#2A2758;}
	.st9{fill:none;stroke:#FFFFFF;stroke-width:6.9816;stroke-miterlimit:10;}
</style>
<g>
	<defs>
		<circle id="XMLID_15_" cx="95" cy="95" r="95"/>
	</defs>
	<use xlink:href="#XMLID_15_"  style="overflow:visible;fill:#2B2658;"/>
	<clipPath id="XMLID_3_">
		<use xlink:href="#XMLID_15_"  style="overflow:visible;"/>
	</clipPath>
</g>
<path class="st2" d="M145.7,141.6c2.5-2.4,2.5-6.4,0.2-8.8l-21.3-22.1c-2.4-2.5-6.4-2.5-8.8-0.2c-2.2,2.1-2.5,5.5-0.8,8
	c-6.8,4.5-16.2,3.7-22.1-2.4L74.2,96.9c-5.9-6.1-6.4-15.6-1.6-22.2c2.4,1.5,5.6,1.3,7.7-0.8c2.5-2.4,2.5-6.4,0.2-8.8L59.2,43
	c-2.4-2.5-6.4-2.5-8.8-0.2c-2.3,2.2-2.5,5.9-0.6,8.3C40.3,63.5,39.7,79.7,49,89.4l50.4,52.1c9.4,9.7,25.6,9.6,38.2,0.6
	C140,143.9,143.5,143.7,145.7,141.6z"/>
</svg>
