<svg id="Ebene_1" data-name="Ebene 1" xmlns="http://www.w3.org/2000/svg" viewBox="0 0 198.43 198.43"><defs><style>.cls-1{fill:#2b2658;}.cls-2{fill:#fff;}</style></defs><path class="cls-1" d="M193.94,99.21A95,95,0,1,0,55.63,183.72,37.12,37.12,0,0,1,91.2,157.18h16.73a38.06,38.06,0,0,1,36,25.7A94.94,94.94,0,0,0,193.94,99.21ZM100,142.37a40.7,40.7,0,1,1,40.69-40.69A40.69,40.69,0,0,1,100,142.37Z"/><path class="cls-2" d="M107.93,157.18H91.2a37.12,37.12,0,0,0-35.57,26.54,95.11,95.11,0,0,0,88.29-.84A38.06,38.06,0,0,0,107.93,157.18Z"/><circle class="cls-2" cx="100.03" cy="101.68" r="40.69"/></svg>