<svg id="Ebene_1" data-name="Ebene 1" xmlns="http://www.w3.org/2000/svg" viewBox="0 0 189.92 189.92"><defs><style>.cls-1{fill:#2b2658;}.cls-2{fill:#fff;}</style></defs><path class="cls-1" d="M189.87,95c1.77,52.4-42.5,94.94-94.94,94.94A94.94,94.94,0,0,1,0,95C0,42.54,42.52,1.44,94.93,0,146.92-1.36,187.9,36.42,189.87,95Z"/><path class="cls-2" d="M117.28,32.27H72.64A20.8,20.8,0,0,0,51.9,53v81.55a9.73,9.73,0,0,0,9.7,9.7h3.66l-6,7.74a3.5,3.5,0,1,0,5.52,4.31l9.4-12.05h41.73l9.4,12.05a3.5,3.5,0,1,0,5.52-4.31l-6-7.74h3.57a9.73,9.73,0,0,0,9.7-9.7V53A20.8,20.8,0,0,0,117.28,32.27ZM60.85,127.86a7.83,7.83,0,1,1,7.83,7.83A7.83,7.83,0,0,1,60.85,127.86Zm61.45,7.83a7.83,7.83,0,1,1,7.83-7.83A7.84,7.84,0,0,1,122.3,135.69ZM130.13,94H60.85V58.89h69.28Z"/></svg>