<svg id="Ebene_1" data-name="Ebene 1" xmlns="http://www.w3.org/2000/svg" viewBox="0 0 332.62 374.84"><defs><style>.cls-1{fill:#cee7de;}</style></defs><path class="cls-1" d="M148.16,3a20.55,20.55,0,0,1,18.25,11l60,113.88,33.82,64.23a3,3,0,0,0,2.66,1.6,2.17,2.17,0,0,0,.36,0,3,3,0,0,0,2.55-2.25l12.63-51a26,26,0,0,1,50.46,12.5L294.32,292.37a2.27,2.27,0,0,1-.35.74,2.92,2.92,0,0,0-.42.87,62.36,62.36,0,0,1-30.87,37.7l-63.15,33.25a63,63,0,0,1-84.91-26.33L50.67,217.18,5.35,131.11A20.54,20.54,0,0,1,41.7,112L87,198a3,3,0,0,0,1.77,1.47,2.93,2.93,0,0,0,.88.13,3,3,0,0,0,1.4-.35L95.43,197A3,3,0,0,0,96.69,193L33.74,73.42A20.54,20.54,0,0,1,70.09,54.28L133,173.8a3,3,0,0,0,2.66,1.61,3,3,0,0,0,1.4-.35l4.36-2.3a3,3,0,0,0,1.26-4L74.38,39a20.54,20.54,0,0,1,36.34-19.14l68.33,129.75a3,3,0,0,0,2.65,1.6,3,3,0,0,0,1.4-.34l4.36-2.3a3,3,0,0,0,1.26-4.05L130.06,33.09A20.51,20.51,0,0,1,148.16,3m0-3a23.31,23.31,0,0,0-10.89,2.7,23.6,23.6,0,0,0-9.86,31.79l58.66,111.39-4.37,2.29L113.38,18.43A23.61,23.61,0,0,0,92.48,5.87a23.32,23.32,0,0,0-10.9,2.7,23.61,23.61,0,0,0-9.86,31.79l68.33,129.75-4.36,2.3L72.74,52.88a23.6,23.6,0,0,0-20.9-12.56A23.31,23.31,0,0,0,41,43a23.6,23.6,0,0,0-9.86,31.79L94,194.34l-4.37,2.3L44.35,110.58A23.54,23.54,0,1,0,2.7,132.51L48,218.58h0L112,340a66,66,0,0,0,58.47,35.13,65.27,65.27,0,0,0,30.49-7.54l63.15-33.26a65.63,65.63,0,0,0,32.34-39.49,5.34,5.34,0,0,0,.81-1.74l34.54-139.46a29.09,29.09,0,0,0-21.17-35.12h0a29,29,0,0,0-35.12,21.18l-12.62,51L229,126.43h0l-60-113.88A23.6,23.6,0,0,0,148.16,0Z"/></svg>