<svg id="Ebene_1" data-name="Ebene 1" xmlns="http://www.w3.org/2000/svg" viewBox="0 0 332.62 374.84"><defs><style>.cls-1{fill:#cee7de;}</style></defs><path class="cls-1" d="M184.45,3a20.56,20.56,0,0,1,18.11,30.09L143.9,144.48a3,3,0,0,0,1.25,4.05l4.37,2.3a3,3,0,0,0,1.39.34,3,3,0,0,0,2.66-1.6L221.9,19.82A20.54,20.54,0,0,1,258.24,39L189.91,168.71a3,3,0,0,0,1.26,4l4.36,2.3a3,3,0,0,0,1.4.35,3,3,0,0,0,2.65-1.61L262.53,54.28a20.54,20.54,0,1,1,36.35,19.14L235.93,193a3,3,0,0,0,1.26,4.05l4.36,2.29a3,3,0,0,0,2.28.22A3,3,0,0,0,245.6,198L290.92,112a20.54,20.54,0,0,1,36.35,19.14l-45.3,86-.06.1L218,338.6a63,63,0,0,1-84.91,26.33L69.94,331.68A62.36,62.36,0,0,1,39.07,294a2.92,2.92,0,0,0-.42-.87,2.27,2.27,0,0,1-.35-.74L3.76,152.92a26,26,0,1,1,50.46-12.5l12.63,51a3,3,0,0,0,2.55,2.25,2.19,2.19,0,0,0,.36,0,3,3,0,0,0,2.65-1.61l33.83-64.23L166.21,14A20.55,20.55,0,0,1,184.45,3m0-3a23.59,23.59,0,0,0-20.89,12.55l-60,113.88h0L69.76,190.66l-12.63-51A29,29,0,0,0,22,118.52h0A29.08,29.08,0,0,0,.85,153.64L35.39,293.1a5.34,5.34,0,0,0,.81,1.74,65.63,65.63,0,0,0,32.34,39.49l63.15,33.26a65.24,65.24,0,0,0,30.49,7.54A66,66,0,0,0,220.65,340l64-121.42h0l45.32-86.07a23.6,23.6,0,0,0-9.86-31.79A23.31,23.31,0,0,0,309.17,98a23.59,23.59,0,0,0-20.9,12.56l-45.33,86.06-4.36-2.3L301.53,74.81A23.6,23.6,0,0,0,291.67,43a23.32,23.32,0,0,0-10.9-2.7,23.6,23.6,0,0,0-20.89,12.56L196.93,172.41l-4.36-2.3L260.9,40.36A23.61,23.61,0,0,0,251,8.57a23.35,23.35,0,0,0-10.9-2.7,23.61,23.61,0,0,0-20.9,12.56L150.91,148.17l-4.36-2.29L205.21,34.49A23.6,23.6,0,0,0,195.35,2.7,23.32,23.32,0,0,0,184.45,0ZM284.6,218.58Z"/></svg>