<svg id="Ebene_1" data-name="Ebene 1" xmlns="http://www.w3.org/2000/svg" viewBox="0 0 572.77 381.38"><defs><style>.cls-1{fill:#fce9b4;}.cls-2{fill:none;stroke:#fce9b4;stroke-linecap:round;stroke-linejoin:round;stroke-width:3px;}</style></defs><path class="cls-1" d="M386.33,3a181.23,181.23,0,0,1,71.22,14.47,185.33,185.33,0,0,1,97.75,97.75,181.23,181.23,0,0,1,14.47,71.22V378.38H190.69a185.29,185.29,0,0,1-72.87-14.81,189.5,189.5,0,0,1-100-100,186.68,186.68,0,0,1,0-145.74,189.59,189.59,0,0,1,100-100A185.29,185.29,0,0,1,190.69,3H386.33m0-3H190.69C85.81,0,0,85.81,0,190.69H0C0,295.57,85.81,381.38,190.69,381.38H572.77V186.44C572.77,83.9,488.87,0,386.33,0Z"/><line class="cls-2" x1="134.81" y1="116.26" x2="437.96" y2="116.26"/><line class="cls-2" x1="134.81" y1="190.69" x2="437.96" y2="190.69"/><line class="cls-2" x1="134.81" y1="265.13" x2="325.48" y2="265.13"/></svg>