<svg id="Ebene_1" data-name="Ebene 1" xmlns="http://www.w3.org/2000/svg" viewBox="0 0 313.37 89.37"><defs><style>.cls-1{fill:#2a2758;}</style></defs><path class="cls-1" d="M300.72,30.1h12.65a0,0,0,0,1,0,0V42.75A12.65,12.65,0,0,1,300.72,55.4h0a12.65,12.65,0,0,1-12.65-12.65v0A12.65,12.65,0,0,1,300.72,30.1Z" transform="translate(257.97 343.47) rotate(-90)"/><path class="cls-1" d="M259.75,0H273a15,15,0,0,1,15,15v15a0,0,0,0,1,0,0H259.75a15,15,0,0,1-15-15v0A15,15,0,0,1,259.75,0Z"/><circle class="cls-1" cx="276.17" cy="41.85" r="7.59"/><path class="cls-1" d="M0,84.58l3.38-4a12.84,12.84,0,0,0,8.52,3.73c3.68,0,5.7-1.67,5.7-4.22s-2.11-3.55-5.08-4.81L8.05,73.36C4.83,72,1.44,69.47,1.44,64.69c0-5.22,4.6-9.23,11-9.23A14.33,14.33,0,0,1,22.5,59.63l-3,3.69a10.49,10.49,0,0,0-7.1-2.82C9.32,60.5,7.3,62,7.3,64.34c0,2.58,2.49,3.53,5.2,4.64l4.41,1.85c3.89,1.62,6.61,4.08,6.61,8.82,0,5.3-4.4,9.72-11.74,9.72A16.85,16.85,0,0,1,0,84.58Z"/><path class="cls-1" d="M28.55,80.49V68.79h-3.5V64.46l3.8-.25.68-6.71h4.78v6.71h6.26v4.58H34.31V80.48c0,2.89,1.12,4.31,3.48,4.31a7.71,7.71,0,0,0,2.56-.56l1,4.24a15.93,15.93,0,0,1-5,.9C30.65,89.37,28.55,85.79,28.55,80.49Z"/><path class="cls-1" d="M45.74,64.21h4.72l.44,4.37h.16c1.75-3.2,4.35-5,7-5a6.12,6.12,0,0,1,2.78.5l-1,5a8.32,8.32,0,0,0-2.52-.4c-2,0-4.32,1.34-5.8,5.08v15H45.74Z"/><path class="cls-1" d="M62.27,76.51c0-8.18,5.56-12.9,11.68-12.9s11.68,4.72,11.68,12.9S80.07,89.37,74,89.37,62.27,84.65,62.27,76.51Zm17.44,0c0-4.92-2.16-8.2-5.76-8.2s-5.76,3.28-5.76,8.2,2.16,8.16,5.76,8.16S79.71,81.43,79.71,76.51Z"/><path class="cls-1" d="M91,53.44h5.64V75.51h.16l9.1-11.3h6.3l-8.42,10,9.28,14.56h-6.26l-6.32-10.66-3.84,4.42v6.24H91Z"/><path class="cls-1" d="M114.37,76.51c0-8,5.54-12.9,11.32-12.9,6.64,0,10.14,4.8,10.14,11.66a14.92,14.92,0,0,1-.25,2.8H120c.48,4.36,3.28,6.84,7.24,6.84a10.48,10.48,0,0,0,5.7-1.78l2,3.58a15.24,15.24,0,0,1-8.42,2.66C119.69,89.37,114.37,84.61,114.37,76.51Zm16.48-2.36c0-3.78-1.68-6.08-5-6.08-2.86,0-5.38,2.14-5.88,6.08Z"/><path class="cls-1" d="M139.72,76.51c0-8.18,5.78-12.9,12.32-12.9a10.46,10.46,0,0,1,7.18,2.76l-2.8,3.74a6,6,0,0,0-4.08-1.8c-4,0-6.7,3.28-6.7,8.2s2.7,8.16,6.52,8.16a8.08,8.08,0,0,0,5.08-2.12l2.34,3.8a12.12,12.12,0,0,1-8,3C144.86,89.37,139.72,84.65,139.72,76.51Z"/><path class="cls-1" d="M161.62,76.51c0-8.18,5.56-12.9,11.68-12.9S185,68.33,185,76.51s-5.56,12.86-11.68,12.86S161.62,84.65,161.62,76.51Zm17.44,0c0-4.92-2.16-8.2-5.76-8.2s-5.76,3.28-5.76,8.2,2.16,8.16,5.76,8.16S179.06,81.43,179.06,76.51Z"/><path class="cls-1" d="M188.77,82.17c0-5.26,4.36-8,14.44-9.08-.08-2.64-1.14-4.84-4.46-4.84a13.56,13.56,0,0,0-6.9,2.42l-2.12-3.84a19.06,19.06,0,0,1,10.08-3.22c6.14,0,9.16,3.78,9.16,10.62V88.77h-4.72l-.44-2.72h-.16c-2.2,1.88-4.72,3.32-7.62,3.32A6.88,6.88,0,0,1,188.77,82.17Zm14.44,0V76.67c-6.66.84-8.88,2.58-8.88,5.06,0,2.17,1.48,3.12,3.54,3.12S201.39,83.87,203.21,82.19Z"/><path class="cls-1" d="M214.27,76.51c0-8.18,5.78-12.9,12.32-12.9a10.46,10.46,0,0,1,7.18,2.76L231,70.11a6,6,0,0,0-4.08-1.8c-4,0-6.7,3.28-6.7,8.2s2.7,8.16,6.52,8.16a8.08,8.08,0,0,0,5.08-2.12l2.34,3.8a12.12,12.12,0,0,1-8,3C219.41,89.37,214.27,84.65,214.27,76.51Z"/><path class="cls-1" d="M239,53.44h5.76v9.14l-.24,4.75c2.06-2,4.5-3.72,7.86-3.72,5.26,0,7.56,3.56,7.56,9.76v15.4h-5.76V74.11c0-4-1.16-5.57-3.82-5.57-2.16,0-3.58,1.07-5.6,3.07V88.77H239Z"/></svg>