<svg id="Ebene_1" data-name="Ebene 1" xmlns="http://www.w3.org/2000/svg" viewBox="0 0 189.92 189.92"><defs><style>.cls-1{fill:#99d0c1;}.cls-2{fill:#e84133;}.cls-3{fill:none;}.cls-4{fill:#2b2658;}.cls-5{fill:#fff;}</style></defs><circle class="cls-1" cx="94.96" cy="94.96" r="94.96"/><path class="cls-2" d="M144.69,139.22S121,152.79,95,152.79s-49.73-13.57-49.73-13.57l38.64-72.4c5.51-10.33,19.44-10.13,24.7.35Z"/><path class="cls-3" d="M96,53.21a13.53,13.53,0,0,1-1.81-.13,9.59,9.59,0,0,1,1.67,5.05h.28a9.59,9.59,0,0,1,1.67-5.05A13.41,13.41,0,0,1,96,53.21Z"/><path class="cls-4" d="M137.89,95.69l-23.18-24.8-7.11-7.6a5.18,5.18,0,0,0-1-.85A15.17,15.17,0,0,0,96.1,58.13h-.28a15.22,15.22,0,0,0-10.56,4.39,5.78,5.78,0,0,0-.88.77L77.27,70.9,54.09,95.69a5.72,5.72,0,0,0,8.35,7.81L80.72,83.94h0v21.82h0v1.15h0V158a5.72,5.72,0,1,0,11.43,0V121.65h0a15.48,15.48,0,0,0,3.81.5,15.25,15.25,0,0,0,3.91-.53h0V158a5.72,5.72,0,1,0,11.43,0V105.76a5.36,5.36,0,0,0-.1-1V83.88l18.34,19.62a5.72,5.72,0,0,0,8.35-7.81Z"/><path class="cls-5" d="M96,74.18a11.06,11.06,0,1,0,11.06,11.06A11.06,11.06,0,0,0,96,74.18Zm-.6,15.57A1.58,1.58,0,1,1,97,88.17,1.58,1.58,0,0,1,95.39,89.75Zm2.47-4H92a3.13,3.13,0,1,1,0-6.25h2.76a3.13,3.13,0,0,1,3.13,3.13ZM100.5,91a2.64,2.64,0,0,1-2.64-2.63V85.7h2.64a2.64,2.64,0,0,1,0,5.27Z"/><path class="cls-4" d="M96,26.21A13.46,13.46,0,0,0,84.06,46a9.37,9.37,0,0,1-1.57,1.34c-3.15,2.64-7.27,2.48-11.22,4.41C63,55.56,59.57,73.74,60,72.43c-.1.13,2.58-5.33,6.27-6.89,3.69-2.27,8.37-.64,12.37-2.87,3.92-2.89,6.19-8.74,7.5-13.72A13.49,13.49,0,1,0,96,26.21Z"/></svg>