<svg id="Ebene_1" data-name="Ebene 1" xmlns="http://www.w3.org/2000/svg" viewBox="0 0 189.92 189.92"><defs><style>.cls-1{fill:#99d0c1;}.cls-2{fill:#2b2658;}</style></defs><circle class="cls-1" cx="94.96" cy="94.96" r="94.96"/><path class="cls-2" d="M158.74,91.46H154.4V76.65a6,6,0,0,0-11.33-2.74,6,6,0,0,0-12,.63V91.46H57.74V74.54A6,6,0,0,0,45.85,73.4a6,6,0,0,0-11,3.25V91.46H31.18a3.5,3.5,0,1,0,0,7h3.63v14.81a6,6,0,0,0,11,3.25,6,6,0,0,0,11.89-1.14V98.46H131.1v16.92a6,6,0,0,0,12,.63,6,6,0,0,0,11.33-2.74V98.46h4.34a3.5,3.5,0,0,0,0-7Z"/></svg>