<svg id="Ebene_1" data-name="Ebene 1" xmlns="http://www.w3.org/2000/svg" viewBox="0 0 189.92 189.92"><defs><style>.cls-1{fill:#99d0c1;}.cls-2{fill:#2b2658;}.cls-3{fill:#fff;}.cls-4{fill:#e84133;}</style></defs><circle class="cls-1" cx="94.96" cy="94.96" r="94.96"/><path class="cls-2" d="M153.07,128.41V47.65H36.85v80.76h52.2v9.18H79.11a4.68,4.68,0,0,0,0,9.36h29.23a4.68,4.68,0,0,0,0-9.36H98.4v-9.18Z"/><rect class="cls-3" x="48.95" y="58.35" width="92.02" height="59.37"/><path class="cls-4" d="M103.85,107.89h-.13a3.53,3.53,0,0,1-2.89-1.73L84.85,79,71.49,99a3.51,3.51,0,0,1-5.66.23L56.08,86.89a3.5,3.5,0,1,1,5.49-4.35l6.77,8.56L82.12,70.44a3.5,3.5,0,0,1,5.93.17l16,27.29,12.17-17.53a3.53,3.53,0,0,1,2.85-1.5h0A3.48,3.48,0,0,1,122,80.34l9.48,13.25a3.5,3.5,0,1,1-5.69,4.08l-6.59-9.22-12.46,17.94A3.51,3.51,0,0,1,103.85,107.89Z"/></svg>